<svg width="1440" height="245" viewBox="0 0 1440 245" fill="none"
    xmlns="http://www.w3.org/2000/svg">
    <path d="M14 67C12.4 65.8 4 64.1667 0 63.5V245H1440.5V7C1435.5 7.5 1386 0 1377.5 0C1369 0 1331 32.5 1325.5 33.5C1320 34.5 1288 30 1277.5 29C1267 28 1249.5 56.5 1243 57C1236.5 57.5 1223.5 51.5 1220.5 51.5C1217.5 51.5 1213.5 57 1209.5 62C1205.5 67 1171.5 92 1157.5 105C1137 122 983 151 919 152.5C855 154 756 123.5 751 124C746 124.5 682.5 141.5 658.5 141.5C634.5 141.5 579.5 104.5 576 104C572.5 103.5 533.5 121 530 121C526.5 121 515.5 117 506 117C496.5 117 445.5 131.5 441 132C436.5 132.5 389.5 109 378 106.5C366.5 104 340.5 117 337 117C333.5 117 327 112 325.5 111.5C324 111 317 114 315 114.5C313 115 311 121 301 121.5C289.5 122 234 86.5 231.5 86.5C229 86.5 224.5 92.5 222.5 92.5C220.5 92.5 215.5 88 210 87.5C204.5 87 167.5 104 164.5 103.5C161.5 103 153 91.5 151 91.5C149 91.5 141 94 138.5 94.5C136 95 123.5 76.5 121.5 76C119.5 75.5 106 61 103 60.5C100 60 92.5 66 90.5 66C88.5 66 86 63.5 84 63.5C82 63.5 76.5 67 75 67C73.5 67 59 73 56.5 73C54 73 38.5 67 37.5 67C36.5 67 24.5 71.5 21 71C17.5 70.5 16 68.5 14 67Z" fill="url(#paint0_linear1)"></path>
    <defs>
        <linearGradient id="paint0_linear1" x1="890" y1="155.5" x2="1409.5" y2="12.9999" gradientUnits="userSpaceOnUse">
            <stop stop-color="#01147E"></stop>
            <stop offset="1" stop-color="#00083A"></stop>
        </linearGradient>
    </defs>
</svg>