<svg xmlns="http://www.w3.org/2000/svg" width="3601" height="780" viewBox="0 0 3601 780">
    <path fill="#101a56" d="M3531,430s-56.17-16.192-44-38,57.46-72.953,78-121c33.15-85.72-50.05,29.784,32.68-165.069C3618.58,56.7,3533,124,3533,124s-56.73,63.761-47,186c0,28.288-25.15,84.392-37,77s1.19-72.458,14-112,20.34-126.345,13-190c-3.46-23.922-14.02-62.068-5-85-23.4,35.625-49.14,58.533-47,108,17.81,5.982,31.46,57.637-4,66,0.3,19.159,7.5,76.7,12,101s-2.11,112.329-20,110-15.08-114.8-32-133c-12.62-1.17-28.05-6.261-20-27-10.98-20.385-54.33-74.832-79-91,15.31,35.448,5.86,58.085,14,69s111.11,176.023,85,182-27.9-36.773-38-59c-7.62,5.339-9.25,13.98-7,52-10.37-6.2-24-14-24-14s9.08-39.961-16-84c-11.6-11.946-50.96-40.621-53-58-5.55,31.452-18.23,65.326,3,86,11.62-4.762,32.11,8.514,17,25,7.91,10.49,2.51,17.936,12,26-31.66-6.6-162.28-25.017-217-6-35.9,20.754-128.51,96.144-147,96-21.23,3.238-27.59,2.468-41,2s-24.3,9.409-35,9-32.58-4.84-46-5-30.95,12.961-40,13-39.11,1.37-45-2c10.92,1.014,19.55-12.616,13-18s-21,14-21,14,2.08-34.7,9-37c7.06-.318,74.36-21.5,64-46-9.93-22.237-54,19-54,19s11.35-47.872-21-45-11,37-11,37-16.76-29.444-35-13,42.59,46.907,49,49c-2.41,7.637-7.06,20.571-6,24-2.91-7.238-11.09-16.726-15-13s4,19,4,19-13.55-6.662-15-3,6,10,6,10h-24s-5.56,14.784-19,15-32.88-2.639-39-2-29.11,3.839-34,4-15.5.335-26,0-14.93-7.3-24-8-224.54,8.962-234,19,2.81,19.422-12,23-34.56,5.4-42,8,3.46,7.588-21,10-90.42,7.9-99,6-64.18-6.721-88-3-83.12,14.632-104,17-95.98.536-106,2-125.61,30.2-138,37-90.98,27.044-103,35-55.81,28.089-71,34-67.8,27.867-79,28-226.98-21.312-271-12-115.55,47.3-269,15c-15.718-6.1-51.272-14.5-84,1-11.2,4.95-53.589-.079-79-5s-134.363-.659-158,1-120.646-14.52-148-21c-26.889-.681-185.632,2.483-154,3,40.993-8.8-244-6-244-6V780l3609,20c39.01,15.938,22.39-200.863,19-304C3625.9,432.019,3531,430,3531,430Z"></path>
</svg>